<svg width="35" height="35" viewBox="0 0 48 48" fill="none" xmlns="http://www.w3.org/2000/svg">
<circle cx="24" cy="24" r="24" fill="#F3F9FA"/>
<path d="M23.6529 11.824C6.8255 12.7908 7.067 36.9586 23.9588 37.5768L23.9588 37.5768H23.9602C31.0836 37.5768 36.8403 31.8114 36.8403 24.6966C36.8403 24.2312 36.463 23.8539 35.9976 23.8539C35.5322 23.8539 35.1548 24.2312 35.1548 24.6966C35.1548 30.8691 30.1332 35.8909 23.9608 35.8913C9.29556 35.349 9.07339 14.427 23.6362 13.5108L23.3641 13.7828C23.035 14.1119 23.035 14.6455 23.3641 14.9746C23.6931 15.3037 24.2267 15.3038 24.5559 14.9746L24.5277 14.9463L24.5559 14.9746L26.275 13.2555C26.2751 13.2554 26.2752 13.2553 26.2753 13.2552C26.6023 12.9406 26.6022 12.3775 26.2753 12.0629C26.2752 12.0628 26.2751 12.0627 26.275 12.0626L24.556 10.3435C24.2269 10.0145 23.6933 10.0144 23.3642 10.3435C23.0351 10.6727 23.0351 11.2062 23.3642 11.5353L23.6529 11.824Z" fill="#10778C" stroke="#10778C" stroke-width="0.08"/>
<path d="M20.9335 22.9794H20.9336L20.9335 22.9779C20.8043 19.5839 15.9367 19.5867 15.8088 22.9779L15.8088 22.9779V22.9794V28.1383H15.8087L15.8088 28.1398C15.8502 29.2552 17.4532 29.2541 17.4942 28.1398L17.4942 28.1398V28.1383V26.4016H19.2481V28.1383C19.2481 28.6038 19.6253 28.981 20.0908 28.981C20.5562 28.981 20.9335 28.6037 20.9335 28.1383V22.9794ZM31.6983 28.981V28.9811L31.6998 28.981C32.8152 28.9396 32.8141 27.3366 31.6998 27.2956L31.6998 27.2956H31.6983H30.3915V25.5417H31.2684V25.5418L31.2699 25.5417C32.3853 25.5003 32.3843 23.8973 31.2699 23.8563L31.2699 23.8563H31.2684H30.3915V22.1025H31.6983V22.1025L31.6998 22.1025C32.8152 22.0611 32.8141 20.4581 31.6998 20.4171L31.6998 20.417H31.6983H29.5488C29.0834 20.417 28.7061 20.7944 28.7061 21.2598V28.1384C28.7061 28.6038 29.0834 28.981 29.5488 28.981H31.6983ZM22.3145 22.9779L22.3145 22.9779V22.9794V26.4187H22.3144L22.3145 26.4202C22.4476 29.8222 27.3179 29.8044 27.4392 26.4201L27.4392 26.4201V26.4187V25.5588C27.4392 25.0934 27.0619 24.7161 26.5965 24.7161H25.7367V24.7161L25.7352 24.7161C24.6198 24.7575 24.6209 26.3606 25.7352 26.4016L25.7352 26.4016H25.7367H25.7537V26.4179C25.7111 27.5776 24.0463 27.5831 23.9999 26.4179V22.9794C23.9999 22.4959 24.3933 22.1025 24.8768 22.1025C25.3603 22.1025 25.7537 22.4959 25.7537 22.9794C25.7537 23.4448 26.1311 23.8221 26.5965 23.8221C27.0619 23.8221 27.4392 23.4448 27.4392 22.9794L27.4392 22.9779C27.3104 19.5847 22.4426 19.586 22.3145 22.9779ZM17.4942 24.7161V22.9802C17.5392 21.8176 19.2034 21.8182 19.2481 22.9802V24.7161H17.4942Z" fill="#10778C" stroke="#10778C" stroke-width="0.08"/>
</svg>
